<?xml version="1.0" encoding="UTF-8" standalone="no"?>
<svg
   xmlns:dc="http://purl.org/dc/elements/1.1/"
   xmlns:cc="http://creativecommons.org/ns#"
   xmlns:rdf="http://www.w3.org/1999/02/22-rdf-syntax-ns#"
   xmlns:svg="http://www.w3.org/2000/svg"
   xmlns="http://www.w3.org/2000/svg"
   viewBox="0 0 29.34918 28.66828"
   height="28.66828"
   width="29.34918"
   version="1.1"
   id="svg4136">
  <metadata
     id="metadata4142">
    <rdf:RDF>
      <cc:Work
         rdf:about="">
        <dc:format>image/svg+xml</dc:format>
        <dc:type
           rdf:resource="http://purl.org/dc/dcmitype/StillImage" />
        <dc:title></dc:title>
      </cc:Work>
    </rdf:RDF>
  </metadata>
  <defs
     id="defs4140" />
  <path
     id="path4146"
     d="m 9.0686973,27.541535 c -1.791883,-1.791883 -1.452369,-2.678757 0.8,-2.089749 2.1591807,0.564639 2.8113517,-1.216197 0.7499997,-2.04797 -0.7854227,-0.316925 -0.8309307,-0.533728 -0.122445,-0.583334 0.620156,-0.04342 1.687756,0.596053 2.372445,1.421053 0.993186,1.196716 0.993186,1.803284 0,3 -1.505281,1.813752 -2.229104,1.870896 -3.7999997,0.3 z m 14.1616257,-0.3 c -0.883002,-2.301068 0.430238,-4.686732 2.373866,-4.312423 2.169749,0.417855 2.928405,3.776747 1.112901,4.927283 -1.952715,1.23749 -2.835704,1.081783 -3.486767,-0.61486 z m 2.638374,-2.5 c 0,-0.55 -0.45,-1 -1,-1 -0.55,0 -1,0.45 -1,1 0,0.55 0.45,1 1,1 0.55,0 1,-0.45 1,-1 z M 13.43468,22.848298 c -1.794417,-2.903428 2.613203,-4.15866 5.973871,-1.70128 1.789124,1.30824 1.7258,1.367956 -0.915238,0.86309 -1.718203,-0.328455 -3.140526,-0.05185 -3.605984,0.701279 -0.546101,0.883611 -0.966665,0.923249 -1.452649,0.136911 z M 9.5488023,17.278783 c -0.804514,-0.804514 -2.021123,-3.842014 -2.703576,-6.75 -1.67396,-7.132882 -2.650744,-8.77591 -5.261714,-8.850634 -2.14981002,-0.06153 -2.14335002,-0.09194 0.2199,-1.03610704 1.33909,-0.534996 2.914094,-0.785924 3.500001,-0.557618 0.585906,0.228307 2.135499,3.58249504 3.443541,7.45375204 l 2.3782567,7.038649 6.040392,0.332355 c 5.788574,0.318499 6.116574,0.207288 7.867776,-2.667645 1.005061,-1.65 1.681155,-3.45 1.502432,-4 -0.178724,-0.55 -3.889438,-1.254979 -8.246033,-1.56662 L 10.368697,6.108294 19.55968,5.924915 c 5.055041,-0.100859 9.418565,0.184856 9.696721,0.634921 0.81881,1.324862 -4.001064,10.819354 -5.853252,11.530105 -3.226574,1.238153 -12.338532,0.704656 -13.8543467,-0.811158 z"
     style="fill:#f16b3d;fill-opacity:1" />
</svg>
